<svg width="32" height="40" viewBox="0 0 32 40" fill="none" xmlns="http://www.w3.org/2000/svg">
<rect x="2.67773" y="13.4102" width="27.3825" height="18.5077" fill="white"/>
<rect x="2.67773" y="1.69531" width="14.8626" height="28.773" fill="white"/>
<rect x="1" y="30.4688" width="30.6416" height="7.95466" rx="3.97733" fill="#FFC900"/>
<path d="M4.44139 1.29102H17.4743C18.0711 1.29102 18.6448 1.52154 19.0757 1.93446L29.8992 12.307C30.3547 12.7435 30.6123 13.3471 30.6123 13.978V36.1093C30.6123 37.3875 29.5761 38.4237 28.2979 38.4237H4.44139C3.16316 38.4237 2.12695 37.3875 2.12695 36.1093V3.60545C2.12695 2.32722 3.16316 1.29102 4.44139 1.29102Z" stroke="black" stroke-width="2.31444"/>
<path d="M23.281 7.68906L23.2878 7.69545L23.2947 7.70173L29.0675 12.9547L17.9461 12.9547L17.9461 2.67481L23.281 7.68906Z" fill="black" stroke="black" stroke-width="2.31328"/>
</svg>
